<?xml version="1.0" encoding="iso-8859-1"?>
<!DOCTYPE svg PUBLIC "-//W3C//DTD SVG 1.1//EN" "http://www.w3.org/Graphics/SVG/1.1/DTD/svg11.dtd">
<svg fill="#000000" height="800px" width="800px" version="1.1" id="Capa_1" xmlns="http://www.w3.org/2000/svg" xmlns:xlink="http://www.w3.org/1999/xlink" 
	 viewBox="0 0 442 442" xml:space="preserve">
<g>
	<path d="M434.735,40.381l-140.669-40c-0.049-0.014-0.1-0.018-0.15-0.032c-0.335-0.09-0.676-0.161-1.024-0.216
		c-0.104-0.016-0.208-0.034-0.312-0.048c-0.406-0.051-0.817-0.085-1.236-0.086c-0.009,0-0.017,0-0.026,0
		c-0.42,0.001-0.83,0.035-1.236,0.086c-0.105,0.013-0.208,0.031-0.312,0.048c-0.348,0.055-0.689,0.126-1.024,0.216
		c-0.049,0.013-0.101,0.018-0.15,0.032L150.663,39.604L12.735,0.381C9.721-0.476,6.475,0.13,3.973,2.02C1.471,3.91,0,6.864,0,10v382
		c0,4.469,2.966,8.396,7.265,9.619l140.663,40c0.049,0.014,0.1,0.018,0.149,0.031c0.337,0.09,0.68,0.162,1.029,0.217
		c0.101,0.016,0.202,0.033,0.304,0.046c0.411,0.052,0.828,0.087,1.253,0.087s0.842-0.035,1.253-0.087
		c0.102-0.013,0.202-0.03,0.304-0.046c0.349-0.055,0.693-0.127,1.029-0.217c0.049-0.013,0.1-0.017,0.149-0.031l137.933-39.222
		l137.934,39.222c0.9,0.256,1.82,0.381,2.735,0.381c2.151,0,4.272-0.694,6.027-2.021c2.502-1.89,3.973-4.844,3.973-7.979V50
		C442,45.531,439.034,41.604,434.735,40.381z M160.663,57.553L281.331,23.24v361.207L160.663,418.76V57.553z M20,23.24
		l120.663,34.313V418.76L20,384.447V23.24z M422,418.76l-120.669-34.313V23.24L422,57.553V418.76z"/>
	<path d="M113.397,361.006l-60.662-17.25c-5.315-1.512-10.844,1.572-12.354,6.883c-1.511,5.313,1.571,10.843,6.883,12.354
		l60.662,17.25c0.915,0.26,1.835,0.384,2.74,0.384c4.356,0,8.363-2.869,9.614-7.267
		C121.792,368.048,118.709,362.517,113.397,361.006z"/>
	<path d="M113.397,311.006l-60.662-17.25c-5.315-1.512-10.844,1.572-12.354,6.883c-1.511,5.313,1.571,10.843,6.883,12.354
		l60.662,17.25c0.915,0.26,1.835,0.384,2.74,0.384c4.356,0,8.363-2.869,9.614-7.267
		C121.792,318.048,118.709,312.517,113.397,311.006z"/>
	<path d="M113.397,261.006l-60.662-17.25c-5.315-1.51-10.844,1.571-12.354,6.883c-1.511,5.313,1.571,10.843,6.883,12.354
		l60.662,17.25c0.915,0.26,1.835,0.384,2.74,0.384c4.356,0,8.363-2.869,9.614-7.267
		C121.792,268.048,118.709,262.517,113.397,261.006z"/>
	<path d="M113.397,79.006l-60.662-17.25c-3.017-0.857-6.26-0.251-8.762,1.639C41.471,65.285,40,68.239,40,71.375v132
		c0,4.469,2.966,8.396,7.265,9.619l60.662,17.25c0.9,0.256,1.82,0.381,2.735,0.381c2.151,0,4.272-0.694,6.027-2.021
		c2.502-1.89,3.973-4.844,3.973-7.979v-132C120.662,84.156,117.696,80.229,113.397,79.006z M100.662,207.385L60,195.822V84.615
		l40.662,11.563V207.385z"/>
	<path d="M190.657,98.628c0.905,0,1.826-0.124,2.74-0.384l60.669-17.251c5.312-1.511,8.394-7.042,6.883-12.354
		c-1.511-5.312-7.044-8.394-12.354-6.883l-60.669,17.251c-5.312,1.511-8.394,7.042-6.883,12.354
		C182.294,95.759,186.3,98.628,190.657,98.628z"/>
	<path d="M248.596,343.756l-60.669,17.251c-5.312,1.511-8.394,7.042-6.883,12.354c1.25,4.398,5.257,7.267,9.614,7.267
		c0.905,0,1.826-0.124,2.74-0.384l60.669-17.251c5.312-1.511,8.394-7.042,6.883-12.354
		C259.439,345.327,253.906,342.245,248.596,343.756z"/>
	<path d="M248.596,293.756l-60.669,17.251c-5.312,1.511-8.394,7.042-6.883,12.354c1.25,4.398,5.257,7.267,9.614,7.267
		c0.905,0,1.826-0.124,2.74-0.384l60.669-17.251c5.312-1.511,8.394-7.042,6.883-12.354
		C259.439,295.327,253.906,292.245,248.596,293.756z"/>
	<path d="M248.596,243.756l-60.669,17.251c-5.312,1.511-8.394,7.042-6.883,12.354c1.25,4.398,5.257,7.267,9.614,7.267
		c0.905,0,1.826-0.124,2.74-0.384l60.669-17.251c5.312-1.511,8.394-7.042,6.883-12.354
		C259.439,245.328,253.906,242.246,248.596,243.756z"/>
	<path d="M248.596,193.756l-60.669,17.251c-5.312,1.511-8.394,7.042-6.883,12.354c1.25,4.398,5.257,7.267,9.614,7.267
		c0.905,0,1.826-0.124,2.74-0.384l60.669-17.251c5.312-1.511,8.394-7.042,6.883-12.354
		C259.439,195.327,253.906,192.246,248.596,193.756z"/>
	<path d="M328.596,80.993l60.669,17.252c0.915,0.26,1.835,0.384,2.74,0.384c4.356,0,8.363-2.869,9.614-7.267
		c1.511-5.313-1.571-10.843-6.883-12.354l-60.669-17.252c-5.314-1.509-10.843,1.572-12.354,6.883
		C320.202,73.951,323.284,79.482,328.596,80.993z"/>
	<path d="M328.596,130.993l60.669,17.252c0.915,0.26,1.835,0.384,2.74,0.384c4.356,0,8.363-2.869,9.614-7.267
		c1.511-5.313-1.571-10.843-6.883-12.354l-60.669-17.252c-5.314-1.509-10.843,1.572-12.354,6.883
		C320.202,123.951,323.284,129.482,328.596,130.993z"/>
	<path d="M328.596,180.993l60.669,17.252c0.915,0.26,1.835,0.384,2.74,0.384c4.356,0,8.363-2.869,9.614-7.267
		c1.511-5.313-1.571-10.843-6.883-12.354l-60.669-17.252c-5.314-1.508-10.843,1.572-12.354,6.883
		C320.202,173.951,323.284,179.482,328.596,180.993z"/>
	<path d="M328.596,362.993l60.669,17.252c0.9,0.256,1.82,0.381,2.735,0.381c2.151,0,4.272-0.694,6.027-2.021
		c2.502-1.89,3.973-4.844,3.973-7.979v-132c0-4.469-2.966-8.396-7.265-9.619l-60.669-17.252c-3.017-0.856-6.26-0.251-8.762,1.639
		c-2.502,1.89-3.973,4.844-3.973,7.979v132C321.331,357.843,324.297,361.77,328.596,362.993z M341.331,234.614L382,246.179v111.207
		l-40.669-11.564V234.614z"/>
</g>
</svg>