<?xml version="1.0" encoding="UTF-8" standalone="no"?>
<!DOCTYPE svg PUBLIC "-//W3C//DTD SVG 1.1//EN" "http://www.w3.org/Graphics/SVG/1.1/DTD/svg11.dtd">
<svg width="100%" height="100%" viewBox="0 0 424 512" version="1.1" xmlns="http://www.w3.org/2000/svg" xmlns:xlink="http://www.w3.org/1999/xlink" xml:space="preserve" xmlns:serif="http://www.serif.com/" style="fill-rule:evenodd;clip-rule:evenodd;stroke-linecap:round;stroke-linejoin:round;stroke-miterlimit:1.5;">
    <path d="M297.2,248.9C311.6,228.3 320,203.2 320,176C320,105.3 262.7,48 192,48C121.3,48 64,105.3 64,176C64,203.2 72.4,228.3 86.8,248.9C90.5,254.2 94.9,260.2 99.6,266.6C112.5,284.3 127.9,305.5 139.4,326.4C149.8,345.4 155.1,365.2 157.7,383.9L109,384C106.8,372 103.1,360.3 97.2,349.5C87.3,331.5 75,314.6 62.7,297.7C57.5,290.6 52.3,283.5 47.3,276.3C27.6,247.9 16,213.3 16,176C16,78.8 94.8,0 192,0C289.2,0 368,78.8 368,176C368,213.3 356.4,247.9 336.6,276.3C331.6,283.5 326.4,290.6 321.2,297.7C308.9,314.5 296.6,331.4 286.7,349.5C280.8,360.3 277.1,372 274.9,384L226.3,384C228.9,365.3 234.2,345.4 244.6,326.5C256.1,305.6 271.5,284.4 284.4,266.7C289.1,260.3 293.4,254.3 297.1,249L297.2,248.9ZM192,128C165.5,128 144,149.5 144,176C144,184.8 136.8,192 128,192C119.2,192 112,184.8 112,176C112,131.8 147.8,96 192,96C200.8,96 208,103.2 208,112C208,120.8 200.8,128 192,128ZM192,512C147.8,512 112,476.2 112,432L112,416L272,416L272,432C272,476.2 236.2,512 192,512Z" style="fill-rule:nonzero;"/>
    <g transform="matrix(0.951622,0.307271,-0.307271,0.951622,56.8081,-59.2129)">
        <path d="M311,87L242.206,155.794L283.673,197.261L231.52,249.413" style="fill:none;stroke:black;stroke-width:27px;"/>
    </g>
    <g transform="matrix(0.991478,-0.130271,0.130271,0.991478,-4.34221,50.0456)">
        <path d="M369,83L405,65" style="fill:none;stroke:black;stroke-width:27px;"/>
    </g>
    <path d="M381,120L397,127" style="fill:none;stroke:black;stroke-width:27px;"/>
    <path d="M353,55L356,39" style="fill:none;stroke:black;stroke-width:27px;"/>
</svg>
