<?xml version="1.0" encoding="iso-8859-1"?>
<svg fill="#000000" height="800px" width="800px" version="1.1" id="Capa_1" xmlns="http://www.w3.org/2000/svg" xmlns:xlink="http://www.w3.org/1999/xlink" 
	 viewBox="0 0 419.738 419.738" xml:space="preserve">
<g id="XMLID_915_">
	<path id="XMLID_916_" d="M0,39.869v340h90L77.869,258.561c21.891-12.662,37.579-34.854,41.358-60.917
		c42.261-22.523,74.992-60.552,90.642-106.486c15.65,45.935,48.381,83.963,90.642,106.486c3.788,26.122,19.54,48.355,41.508,61.003
		l-12.281,121.223h90v-340H0z M362.931,349.869l8.206-81.003c4.217,0.648,8.531,1.003,12.93,1.003c0.604,0,2.737,0,5.671,0v80
		H362.931z M389.738,239.869h-5.671c-13.163,0-25.864-4.758-35.762-13.398c-9.819-8.57-16.249-20.337-18.104-33.134l-2.179-15.027
		l-13.4-7.142c-23.992-12.787-44.497-31.627-59.298-54.482c-9.341-14.425-16.256-30.258-20.525-46.817h154.94V239.869z
		 M89.538,193.338c-1.855,12.797-8.285,24.563-18.104,33.134c-9.898,8.64-22.599,13.398-35.762,13.398H30v-170h154.94
		c-4.269,16.56-11.184,32.393-20.525,46.817c-14.801,22.856-35.306,41.695-59.298,54.482l-13.4,7.142L89.538,193.338z
		 M56.851,349.869H30v-80c2.934,0,5.066,0,5.671,0c4.45,0,8.813-0.363,13.077-1.027L56.851,349.869z"/>
</g>
</svg>